<svg xmlns="http://www.w3.org/2000/svg" viewBox="0 0 8.56 8.58"><defs><style>.cls-1{fill:#023443;}</style></defs><g id="Layer_2" data-name="Layer 2"><g id="Layer_1-2" data-name="Layer 1"><path class="cls-1" d="M4.2,0H5.54a6.3,6.3,0,0,1,1.15.1,2.2,2.2,0,0,1,1.45,1,2.49,2.49,0,0,1,.37,1.06,13.38,13.38,0,0,1,.05,1.55c0,.63,0,1.27,0,1.9a4.72,4.72,0,0,1-.1,1.12A2.19,2.19,0,0,1,6.79,8.45a3.12,3.12,0,0,1-.86.11c-1,0-2,0-3,0a4.72,4.72,0,0,1-1.12-.1,2.21,2.21,0,0,1-1.7-1.7A3.44,3.44,0,0,1,0,5.93C0,5,0,4,0,3.07A6,6,0,0,1,.08,2,2.21,2.21,0,0,1,1.26.34a2.35,2.35,0,0,1,1-.28C2.91,0,3.55,0,4.2,0Zm0,.77H3.72a12.3,12.3,0,0,0-1.49,0,1.88,1.88,0,0,0-.66.2A1.49,1.49,0,0,0,.84,2.1,4.9,4.9,0,0,0,.77,3c0,.94,0,1.88,0,2.82a3.94,3.94,0,0,0,.08.69A1.43,1.43,0,0,0,2,7.73a5.44,5.44,0,0,0,1,.08H4.64a15.71,15.71,0,0,0,1.68,0,1.7,1.7,0,0,0,.73-.24,1.48,1.48,0,0,0,.66-1,5,5,0,0,0,.07-1c0-.86,0-1.73,0-2.59a4.76,4.76,0,0,0-.07-.84A1.47,1.47,0,0,0,6.53.87a6,6,0,0,0-1-.08Z"/><path class="cls-1" d="M4.27,6.5A2.2,2.2,0,1,1,6.48,4.35,2.2,2.2,0,0,1,4.27,6.5Zm0-.77A1.43,1.43,0,1,0,2.85,4.32,1.44,1.44,0,0,0,4.28,5.73Z"/><path class="cls-1" d="M6.56,2.53a.52.52,0,0,1,0-1,.52.52,0,0,1,.52.5A.52.52,0,0,1,6.56,2.53Z"/></g></g></svg>