<svg xmlns="http://www.w3.org/2000/svg" viewBox="0 0 8.58 8.28"><defs><style>.cls-1{fill:#023443;}.cls-2{fill:#fff;}</style></defs><g id="Layer_2" data-name="Layer 2"><g id="Layer_1-2" data-name="Layer 1"><rect class="cls-1" width="8.58" height="8.28" rx="0.81"/><path class="cls-2" d="M4.6,3.71a1,1,0,0,1,.64-.42,1.64,1.64,0,0,1,.85,0,1.06,1.06,0,0,1,.69.82,2.7,2.7,0,0,1,.09.75V6.53c0,.14-.07.2-.21.2H6c-.13,0-.2-.06-.2-.19,0-.53,0-1.06,0-1.59a1.57,1.57,0,0,0,0-.37.48.48,0,0,0-.45-.39.54.54,0,0,0-.54.32A1.13,1.13,0,0,0,4.6,5V6.53c0,.14-.06.2-.2.2H3.71a.18.18,0,0,1-.2-.2v-3a.18.18,0,0,1,.2-.2h.71a.17.17,0,0,1,.18.19Z"/><path class="cls-2" d="M3.05,5V6.5c0,.16-.07.23-.23.23H2.16A.19.19,0,0,1,2,6.52v-3a.19.19,0,0,1,.21-.21h.68a.2.2,0,0,1,.21.22Z"/><path class="cls-2" d="M3.2,2.33a.71.71,0,1,1-1.41,0,.71.71,0,0,1,1.41,0Z"/></g></g></svg>